<svg width="100" height="100" viewBox="250 145 200 200" fill="blue"  xmlns="http://www.w3.org/2000/svg">
<path d="M417.329 289.983c0 26.931 -22.103 48.78 -48.78 48.78h-33.028c-26.931 0 -48.526 -21.849 -48.526 -48.78v-8.13c0 -4.065 3.049 -7.368 7.368 -7.368c4.065 0 7.368 3.303 7.368 7.368v8.13c0 18.547 15.244 34.044 33.79 34.044h33.028c18.801 0 33.79 -15.498 33.79 -34.806c0 -16.006 -12.703 -30.996 -28.455 -34.552l-12.449 -2.541c-3.811 -0.762 -6.606 -4.573 -5.843 -8.638c0.762 -4.065 4.573 -6.86 8.892 -6.097l12.195 2.541c23.374 4.827 40.65 25.406 40.65 50.05zM286.996 196.234c0 -27.185 21.595 -49.034 48.526 -49.034h33.028c26.676 0 48.78 21.849 48.78 49.034c0 4.065 -3.557 7.368 -7.622 7.368c-4.065 0 -7.368 -3.303 -7.368 -7.368c0 -18.801 -14.99 -34.044 -33.79 -34.044h-33.028c-18.547 0 -33.79 15.244 -33.79 34.044c0 16.26 12.703 30.741 28.455 34.552c3.557 0.508 8.13 1.778 11.433 2.287c3.557 1.016 5.843 4.319 5.081 8.638c-0.762 3.303 -3.811 5.843 -7.368 5.843h-1.27l-10.417 -2.287c-23.882 -4.573 -40.65 -25.152 -40.65 -49.034zM435.47 207.72c4.746 11.222 7.12 22.976 7.12 35.262c0 12.286 -2.373 24.04 -7.12 35.262c-3.419 8.083 -7.888 15.477 -13.406 22.181l0.33 -1.852l0.036 -0.226l0.261 -1.898l0.026 -0.226l0.186 -1.907l0.018 -0.226l0.06 -1.036c3.575 -5.054 6.588 -10.478 9.038 -16.271c4.549 -10.755 6.824 -22.023 6.824 -33.802c0 -11.779 -2.275 -23.047 -6.824 -33.802c-2.453 -5.801 -5.471 -11.231 -9.052 -16.291l-0.047 -0.813l-0.017 -0.222l-0.184 -1.907l-0.026 -0.223l-0.258 -1.898l-0.035 -0.222l-0.333 -1.886l-0.043 -0.221l-0.002 -0.01c5.538 6.718 10.022 14.129 13.45 22.234zM268.53 278.244c-4.747 -11.222 -7.12 -22.976 -7.12 -35.262c0 -12.286 2.373 -24.04 7.12 -35.262c3.512 -8.304 8.132 -15.88 13.86 -22.728l-0.098 0.458l-0.042 0.218l-0.328 1.887l-0.034 0.218l-0.256 1.898l-0.025 0.218l-0.183 1.907l-0.017 0.218l-0.022 0.381c-3.736 5.2 -6.87 10.794 -9.404 16.783c-4.549 10.755 -6.824 22.023 -6.824 33.802c0 11.78 2.275 23.047 6.824 33.802c2.53 5.982 5.66 11.57 9.39 16.764l0.034 0.592l0.017 0.221l0.184 1.907l0.026 0.222l0.258 1.899l0.034 0.222l0.331 1.886l0.043 0.221l0.043 0.197c-5.705 -6.833 -10.308 -14.389 -13.81 -22.669z" data-paper-data="{&amp;quot;isPathIcon&amp;quot;:true}"/>
</svg>
